<svg width="20" height="20" viewBox="0 0 20 20" fill="none" xmlns="http://www.w3.org/2000/svg">
<g clip-path="url(#clip0_28_168)">
<path d="M6.18666 17.5C6.50971 18.2428 7.04268 18.8751 7.72012 19.3193C8.39756 19.7634 9.18996 20 9.99999 20C10.81 20 11.6024 19.7634 12.2799 19.3193C12.9573 18.8751 13.4903 18.2428 13.8133 17.5H6.18666Z" fill="black" />
<path d="M18.66 10.4576L17.2133 5.6884C16.7501 4.02035 15.7428 2.55488 14.3516 1.52465C12.9603 0.494421 11.2647 -0.0415051 9.53409 0.00196195C7.80345 0.045429 6.13693 0.665797 4.79913 1.76457C3.46134 2.86334 2.52894 4.37753 2.14999 6.06673L1.02666 10.6809C0.877354 11.294 0.869265 11.9331 1.003 12.5498C1.13674 13.1665 1.40881 13.7448 1.79868 14.241C2.18855 14.7372 2.68603 15.1383 3.25359 15.4142C3.82115 15.6901 4.44395 15.8334 5.07499 15.8334H14.6725C15.3231 15.8334 15.9647 15.6811 16.5458 15.3886C17.127 15.0961 17.6316 14.6716 18.0192 14.149C18.4068 13.6265 18.6666 13.0204 18.7779 12.3794C18.8892 11.7384 18.8488 11.0802 18.66 10.4576Z" fill="black" />
</g>
<defs>
<clipPath id="clip0_28_168">
<rect width="20" height="20" fill="white"/>
</clipPath>
</defs>
</svg>
